<svg width="50" height="50" viewBox="0 0 50 50" fill="none" xmlns="http://www.w3.org/2000/svg">
<rect width="50" height="50" fill="#FCFCFC"/>
<path d="M22.713 33V23.214L18.891 30.501H17.274L13.452 23.214V33H10.554V18.09H13.662L18.072 26.574L22.524 18.09H25.611V33H22.713ZM40.7359 29.157C40.7359 29.997 40.5189 30.704 40.0849 31.278C39.6509 31.838 39.0629 32.265 38.3209 32.559C37.5929 32.853 36.7949 33 35.9269 33H28.7239V18.09H36.7039C37.4039 18.09 38.0059 18.279 38.5099 18.657C39.0139 19.021 39.4059 19.497 39.6859 20.085C39.9659 20.673 40.1059 21.275 40.1059 21.891C40.1059 22.619 39.9239 23.305 39.5599 23.949C39.1959 24.579 38.6639 25.048 37.9639 25.356C38.8179 25.608 39.4899 26.063 39.9799 26.721C40.4839 27.379 40.7359 28.191 40.7359 29.157ZM31.6219 20.568V24.327H35.4859C35.9619 24.327 36.3749 24.159 36.7249 23.823C37.0749 23.487 37.2499 23.025 37.2499 22.437C37.2499 21.877 37.0889 21.429 36.7669 21.093C36.4589 20.743 36.0739 20.568 35.6119 20.568H31.6219ZM37.8169 28.611C37.8169 28.065 37.6489 27.596 37.3129 27.204C36.9769 26.812 36.5639 26.616 36.0739 26.616H31.6219V30.543H35.9269C36.4589 30.543 36.9069 30.354 37.2709 29.976C37.6349 29.598 37.8169 29.143 37.8169 28.611Z" fill="#001011"/>
</svg>
