<svg width="200" height="80" viewBox="0 0 200 80" fill="none" xmlns="http://www.w3.org/2000/svg">
<rect x="12" y="14" width="26" height="15" fill="#FCFCFC"/>
<rect x="22" y="30" width="6" height="5" fill="#FCFCFC"/>
<path d="M16 34H34V36H16V34Z" fill="#FCFCFC"/>
<rect y="50" width="50" height="3" transform="rotate(-90 0 50)" fill="#FCFCFC"/>
<rect x="47" width="153" height="50" fill="#FCFCFC"/>
<rect width="48" height="3" fill="#FCFCFC"/>
<rect y="47" width="48" height="3" fill="#FCFCFC"/>
<path d="M69.713 32V22.214L65.891 29.501H64.274L60.452 22.214V32H57.554V17.09H60.662L65.072 25.574L69.524 17.09H72.611V32H69.713ZM79.7769 17.09H82.7169L88.1979 32H85.2159L83.8299 28.283H78.6219L77.2569 32H74.2749L79.7769 17.09ZM83.3049 26.246L81.2469 20.093L79.1049 26.246H83.3049ZM89.8333 32V17.09H96.4273C97.1133 17.09 97.7433 17.23 98.3173 17.51C98.9053 17.79 99.4093 18.168 99.8293 18.644C100.263 19.12 100.592 19.652 100.816 20.24C101.054 20.828 101.173 21.43 101.173 22.046C101.173 22.998 100.928 23.873 100.438 24.671C99.9623 25.469 99.3113 26.043 98.4853 26.393L101.887 32H98.6953L95.6293 27.002H92.7313V32H89.8333ZM92.7313 24.461H96.3643C96.9103 24.461 97.3583 24.23 97.7083 23.768C98.0723 23.292 98.2543 22.718 98.2543 22.046C98.2543 21.584 98.1563 21.171 97.9603 20.807C97.7643 20.443 97.5123 20.156 97.2043 19.946C96.9103 19.736 96.5883 19.631 96.2383 19.631H92.7313V24.461ZM102.814 24.44C102.814 23.53 102.975 22.634 103.297 21.752C103.633 20.87 104.116 20.072 104.746 19.358C105.376 18.644 106.146 18.077 107.056 17.657C107.966 17.223 109.002 17.006 110.164 17.006C111.522 17.006 112.705 17.307 113.713 17.909C114.721 18.511 115.47 19.295 115.96 20.261L113.734 21.794C113.482 21.234 113.153 20.793 112.747 20.471C112.341 20.149 111.9 19.918 111.424 19.778C110.962 19.638 110.514 19.568 110.08 19.568C109.352 19.568 108.715 19.715 108.169 20.009C107.637 20.303 107.189 20.688 106.825 21.164C106.461 21.64 106.188 22.172 106.006 22.76C105.838 23.348 105.754 23.936 105.754 24.524C105.754 25.406 105.936 26.232 106.3 27.002C106.664 27.758 107.175 28.374 107.833 28.85C108.491 29.326 109.254 29.564 110.122 29.564C110.57 29.564 111.032 29.487 111.508 29.333C111.998 29.179 112.446 28.934 112.852 28.598C113.258 28.262 113.573 27.828 113.797 27.296L116.17 28.661C115.862 29.403 115.379 30.033 114.721 30.551C114.063 31.055 113.321 31.447 112.495 31.727C111.669 31.993 110.85 32.126 110.038 32.126C108.974 32.126 108.001 31.909 107.119 31.475C106.251 31.027 105.495 30.439 104.851 29.711C104.207 28.969 103.703 28.143 103.339 27.233C102.989 26.309 102.814 25.378 102.814 24.44ZM128.467 29.459V32H118.114V17.09H128.278V19.631H121.012V23.222H127.291V25.574H121.012V29.459H128.467ZM130.726 32V17.09H133.624V29.459H141.226V32H130.726ZM142.99 32V17.09H145.888V32H142.99ZM171.1 28.157C171.1 28.997 170.883 29.704 170.449 30.278C170.015 30.838 169.427 31.265 168.685 31.559C167.957 31.853 167.159 32 166.291 32H159.088V17.09H167.068C167.768 17.09 168.37 17.279 168.874 17.657C169.378 18.021 169.77 18.497 170.05 19.085C170.33 19.673 170.47 20.275 170.47 20.891C170.47 21.619 170.288 22.305 169.924 22.949C169.56 23.579 169.028 24.048 168.328 24.356C169.182 24.608 169.854 25.063 170.344 25.721C170.848 26.379 171.1 27.191 171.1 28.157ZM161.986 19.568V23.327H165.85C166.326 23.327 166.739 23.159 167.089 22.823C167.439 22.487 167.614 22.025 167.614 21.437C167.614 20.877 167.453 20.429 167.131 20.093C166.823 19.743 166.438 19.568 165.976 19.568H161.986ZM168.181 27.611C168.181 27.065 168.013 26.596 167.677 26.204C167.341 25.812 166.928 25.616 166.438 25.616H161.986V29.543H166.291C166.823 29.543 167.271 29.354 167.635 28.976C167.999 28.598 168.181 28.143 168.181 27.611ZM173.362 32V17.09H176.26V32H173.362ZM179.37 32V17.09H182.268V29.459H189.87V32H179.37Z" fill="#121212"/>
<path d="M10.449 67.092C10.347 66.9787 10.1317 66.8313 9.803 66.65C9.47433 66.4573 9.07767 66.2873 8.613 66.14C8.15967 65.9813 7.68933 65.902 7.202 65.902C5.92133 65.902 5.281 66.3553 5.281 67.262C5.281 67.5907 5.383 67.8513 5.587 68.044C5.791 68.2367 6.097 68.401 6.505 68.537C6.913 68.673 7.423 68.8203 8.035 68.979C8.82833 69.183 9.514 69.421 10.092 69.693C10.6813 69.965 11.129 70.3277 11.435 70.781C11.7523 71.223 11.911 71.8123 11.911 72.549C11.911 73.4103 11.7013 74.1073 11.282 74.64C10.874 75.1613 10.33 75.541 9.65 75.779C8.97 76.017 8.23333 76.136 7.44 76.136C6.53333 76.136 5.63233 76 4.737 75.728C3.853 75.4447 3.06533 75.0593 2.374 74.572L3.411 72.549C3.513 72.651 3.69433 72.787 3.955 72.957C4.21567 73.1157 4.533 73.28 4.907 73.45C5.281 73.6087 5.689 73.7447 6.131 73.858C6.573 73.9713 7.02067 74.028 7.474 74.028C8.766 74.028 9.412 73.6143 9.412 72.787C9.412 72.4357 9.28167 72.1523 9.021 71.937C8.76033 71.7217 8.392 71.5403 7.916 71.393C7.45133 71.2457 6.90733 71.0813 6.284 70.9C5.51333 70.6847 4.873 70.4467 4.363 70.186C3.86433 69.914 3.49033 69.5797 3.241 69.183C2.99167 68.775 2.867 68.2593 2.867 67.636C2.867 66.8087 3.05967 66.1173 3.445 65.562C3.84167 64.9953 4.37433 64.5703 5.043 64.287C5.71167 63.9923 6.454 63.845 7.27 63.845C8.10867 63.845 8.89067 63.981 9.616 64.253C10.3413 64.525 10.9647 64.8367 11.486 65.188L10.449 67.092ZM22.7108 65.987H18.8518V76H16.5228V65.987H12.6638V63.93H22.7108V65.987ZM24.2092 76V63.93H29.5472C30.1025 63.93 30.6125 64.0433 31.0772 64.27C31.5532 64.4967 31.9612 64.8027 32.3012 65.188C32.6525 65.5733 32.9188 66.004 33.1002 66.48C33.2928 66.956 33.3892 67.4433 33.3892 67.942C33.3892 68.7127 33.1908 69.421 32.7942 70.067C32.4088 70.713 31.8818 71.1777 31.2132 71.461L33.9672 76H31.3832L28.9012 71.954H26.5552V76H24.2092ZM26.5552 69.897H29.4962C29.9382 69.897 30.3008 69.71 30.5842 69.336C30.8788 68.9507 31.0262 68.486 31.0262 67.942C31.0262 67.568 30.9468 67.2337 30.7882 66.939C30.6295 66.6443 30.4255 66.412 30.1762 66.242C29.9382 66.072 29.6775 65.987 29.3942 65.987H26.5552V69.897ZM40.5994 76.085C39.7154 76.085 38.9108 75.915 38.1854 75.575C37.4714 75.235 36.8538 74.776 36.3324 74.198C35.8224 73.6087 35.4258 72.9513 35.1424 72.226C34.8591 71.4893 34.7174 70.7357 34.7174 69.965C34.7174 69.1603 34.8648 68.3953 35.1594 67.67C35.4541 66.9333 35.8678 66.2817 36.4004 65.715C36.9331 65.137 37.5564 64.6837 38.2704 64.355C38.9958 64.015 39.7891 63.845 40.6504 63.845C41.5231 63.845 42.3164 64.0207 43.0304 64.372C43.7558 64.7233 44.3734 65.1937 44.8834 65.783C45.4048 66.3723 45.8014 67.0353 46.0734 67.772C46.3568 68.4973 46.4984 69.2397 46.4984 69.999C46.4984 70.7923 46.3511 71.5573 46.0564 72.294C45.7618 73.0193 45.3481 73.671 44.8154 74.249C44.2941 74.8157 43.6708 75.2633 42.9454 75.592C42.2314 75.9207 41.4494 76.085 40.5994 76.085ZM37.0974 69.965C37.0974 70.6677 37.2334 71.325 37.5054 71.937C37.7888 72.549 38.1911 73.0477 38.7124 73.433C39.2451 73.8183 39.8798 74.011 40.6164 74.011C41.3758 74.011 42.0161 73.8127 42.5374 73.416C43.0588 73.0193 43.4554 72.5093 43.7274 71.886C43.9994 71.2627 44.1354 70.6223 44.1354 69.965C44.1354 69.2623 43.9938 68.605 43.7104 67.993C43.4271 67.381 43.0191 66.888 42.4864 66.514C41.9651 66.1287 41.3418 65.936 40.6164 65.936C39.8571 65.936 39.2168 66.1343 38.6954 66.531C38.1741 66.9277 37.7774 67.4377 37.5054 68.061C37.2334 68.673 37.0974 69.3077 37.0974 69.965ZM50.644 68.248V76H48.298V63.93H50.168L56.407 71.886V63.947H58.753V76H56.798L50.644 68.248ZM62.6239 63.93L65.5989 69.608L68.6249 63.93H71.1579L66.7719 71.784V76H64.4429V71.75L60.0739 63.93H62.6239ZM75.9396 76V63.93H78.2856V76H75.9396ZM83.1499 68.248V76H80.8039V63.93H82.6739L88.9129 71.886V63.947H91.2589V76H89.3039L83.1499 68.248ZM102.797 65.987H98.9377V76H96.6087V65.987H92.7497V63.93H102.797V65.987ZM112.676 73.943V76H104.295V63.93H112.523V65.987H106.641V68.894H111.724V70.798H106.641V73.943H112.676ZM114.505 76V63.93H119.843C120.398 63.93 120.908 64.0433 121.373 64.27C121.849 64.4967 122.257 64.8027 122.597 65.188C122.948 65.5733 123.215 66.004 123.396 66.48C123.589 66.956 123.685 67.4433 123.685 67.942C123.685 68.7127 123.487 69.421 123.09 70.067C122.705 70.713 122.178 71.1777 121.509 71.461L124.263 76H121.679L119.197 71.954H116.851V76H114.505ZM116.851 69.897H119.792C120.234 69.897 120.597 69.71 120.88 69.336C121.175 68.9507 121.322 68.486 121.322 67.942C121.322 67.568 121.243 67.2337 121.084 66.939C120.925 66.6443 120.721 66.412 120.472 66.242C120.234 66.072 119.973 65.987 119.69 65.987H116.851V69.897ZM128.157 68.248V76H125.811V63.93H127.681L133.92 71.886V63.947H136.266V76H134.311L128.157 68.248ZM147.158 73.943V76H138.777V63.93H147.005V65.987H141.123V68.894H146.206V70.798H141.123V73.943H147.158ZM158.014 65.987H154.155V76H151.826V65.987H147.967V63.93H158.014V65.987ZM164.397 76.085C163.513 76.085 162.709 75.915 161.983 75.575C161.269 75.235 160.652 74.776 160.13 74.198C159.62 73.6087 159.224 72.9513 158.94 72.226C158.657 71.4893 158.515 70.7357 158.515 69.965C158.515 69.1603 158.663 68.3953 158.957 67.67C159.252 66.9333 159.666 66.2817 160.198 65.715C160.731 65.137 161.354 64.6837 162.068 64.355C162.794 64.015 163.587 63.845 164.448 63.845C165.321 63.845 166.114 64.0207 166.828 64.372C167.554 64.7233 168.171 65.1937 168.681 65.783C169.203 66.3723 169.599 67.0353 169.871 67.772C170.155 68.4973 170.296 69.2397 170.296 69.999C170.296 70.7923 170.149 71.5573 169.854 72.294C169.56 73.0193 169.146 73.671 168.613 74.249C168.092 74.8157 167.469 75.2633 166.743 75.592C166.029 75.9207 165.247 76.085 164.397 76.085ZM160.895 69.965C160.895 70.6677 161.031 71.325 161.303 71.937C161.587 72.549 161.989 73.0477 162.51 73.433C163.043 73.8183 163.678 74.011 164.414 74.011C165.174 74.011 165.814 73.8127 166.335 73.416C166.857 73.0193 167.253 72.5093 167.525 71.886C167.797 71.2627 167.933 70.6223 167.933 69.965C167.933 69.2623 167.792 68.605 167.508 67.993C167.225 67.381 166.817 66.888 166.284 66.514C165.763 66.1287 165.14 65.936 164.414 65.936C163.655 65.936 163.015 66.1343 162.493 66.531C161.972 66.9277 161.575 67.4377 161.303 68.061C161.031 68.673 160.895 69.3077 160.895 69.965ZM175.745 63.964H177.921L179.298 67.959L180.692 63.964H182.851L180.777 69.455L182.307 73.297L185.724 63.93H188.274L183.446 76H181.423L179.298 70.934L177.19 76H175.167L170.356 63.93H172.872L176.306 73.297L177.802 69.455L175.745 63.964ZM197.892 73.943V76H189.511V63.93H197.739V65.987H191.857V68.894H196.94V70.798H191.857V73.943H197.892Z" fill="#FCFCFC"/>
</svg>
